<?xml version="1.0" encoding="UTF-8"?>
<svg version="1.1" xmlns="http://www.w3.org/2000/svg" width="2000" height="856">
<path d="M0 0 C0.66 1.32 1.32 2.64 2 4 C-12.32291494 17.43024429 -12.32291494 17.43024429 -18.4375 22.875 C-24.76823761 28.54541233 -30.61598793 34.48922513 -36.15234375 40.93359375 C-38.83510506 43.93397585 -41.7058153 46.72952231 -44.59375 49.53125 C-47.21910589 52.22479696 -49.66655434 55.03678202 -52.13085938 57.87695312 C-55.7768984 62.01827436 -59.60052835 65.99478457 -63.39453125 70 C-67.16263118 73.99434196 -70.83305102 78.05379722 -74.43261719 82.20068359 C-76.37968954 84.43587413 -78.37494469 86.62470003 -80.375 88.8125 C-84.23022386 93.08310151 -87.87582515 97.48773669 -91.4921875 101.9609375 C-94.3883188 105.47057948 -97.37680579 108.89018597 -100.375 112.3125 C-105.53937239 118.22544065 -110.45971518 124.2821289 -115.265625 130.48828125 C-117.57944714 133.47544228 -119.94560472 136.41635055 -122.32568359 139.35083008 C-129.2489809 147.90320538 -135.79112989 156.71346193 -142.26074219 165.61230469 C-143.93935021 167.9167385 -145.62859765 170.21299075 -147.3203125 172.5078125 C-155.31555418 183.40005473 -162.77402486 194.58470574 -170 206 C-170.52561523 206.82838379 -171.05123047 207.65676758 -171.59277344 208.51025391 C-190.37766902 238.21350879 -207.25701471 269.11366961 -224 300 C-225.04816202 301.93099776 -226.09633939 303.86198719 -227.14453125 305.79296875 C-232.78205106 316.18508524 -238.39732842 326.58905971 -244 337 C-245.75878724 340.26652747 -247.51774706 343.53296189 -249.27685547 346.79931641 C-250.40931486 348.90282202 -251.54116912 351.00665356 -252.67236328 353.11083984 C-258.42319202 363.80461435 -264.23024479 374.45496612 -270.25 385 C-275.9111812 394.92202427 -281.27377135 404.98743362 -286.60241699 415.09008789 C-291.1116774 423.63410778 -295.69582254 432.11677481 -300.5 440.5 C-305.75533637 449.67205719 -310.7493726 458.96736416 -315.6875 468.3125 C-321.21655409 478.77355432 -326.81321896 489.18456391 -332.60498047 499.50292969 C-335.28805777 504.30560988 -337.9393786 509.12590297 -340.5949707 513.94381714 C-341.6274597 515.8169624 -342.66035137 517.68988506 -343.69335938 519.56274414 C-346.47712433 524.60995214 -349.26014126 529.65757231 -352.04248047 534.70556641 C-352.37589447 535.31045395 -352.70930847 535.91534149 -353.05282593 536.53855896 C-353.72280943 537.75408186 -354.39275171 538.96962748 -355.06265259 540.18519592 C-356.72791904 543.2063607 -358.39468926 546.22667961 -360.06445312 549.24536133 C-360.72920864 550.44740518 -361.39392229 551.64947217 -362.05859375 552.8515625 C-362.38596527 553.4435997 -362.71333679 554.0356369 -363.05062866 554.64561462 C-365.01252612 558.19818652 -366.95874147 561.75883502 -368.89317322 565.32643127 C-382.41113406 590.24561314 -397.33012656 613.50629095 -417 634 C-417.80244141 634.84328857 -417.80244141 634.84328857 -418.62109375 635.70361328 C-454.18359319 672.89845608 -503.32256904 696.11373 -555 698 C-566.33104965 698.23316913 -577.66828894 698.12827607 -589 698 C-583.74104575 687.3712841 -578.33322841 676.83677131 -572.75 666.375 C-572.00159729 664.96941718 -571.25322537 663.56381797 -570.50488281 662.15820312 C-564.89360439 651.62921593 -559.20139812 641.1458978 -553.46679688 630.68359375 C-550.79604055 625.79728324 -548.14928721 620.89797341 -545.5 616 C-540.86250179 607.42957303 -536.20601902 598.86977687 -531.53491211 590.31762695 C-527.15321924 582.29116558 -522.79791955 574.25051291 -518.45117188 566.20507812 C-517.94263672 565.26470703 -517.43410156 564.32433594 -516.91015625 563.35546875 C-516.46808838 562.53715576 -516.02602051 561.71884277 -515.57055664 560.87573242 C-513.40202888 556.90509842 -511.2010214 552.9526923 -509 549 C-515.33523191 548.87323327 -521.67013694 548.78566368 -528.00634766 548.7253418 C-530.16174542 548.70019603 -532.31705791 548.66607476 -534.47216797 548.62280273 C-537.57020092 548.56215492 -540.66710681 548.53379088 -543.765625 548.51171875 C-544.72929993 548.48591232 -545.69297485 548.4601059 -546.68585205 548.43351746 C-552.13807625 548.34161791 -552.13807625 548.34161791 -556.51367188 551.31762695 C-557.2494043 552.64540161 -557.2494043 552.64540161 -558 554 C-558.66515625 555.1240625 -559.3303125 556.248125 -560.015625 557.40625 C-560.76503438 558.76830282 -561.50946131 560.13310397 -562.25 561.5 C-562.67128174 562.26626709 -563.09256348 563.03253418 -563.52661133 563.82202148 C-565.62154921 567.63446094 -567.70260774 571.45444182 -569.78466797 575.27392578 C-583.42199119 600.26574955 -597.58026217 624.70135999 -614 648 C-614.56460937 648.80550293 -615.12921875 649.61100586 -615.7109375 650.44091797 C-622.94350282 660.73161903 -630.57239859 670.60435343 -638.59423828 680.29003906 C-640.51372237 682.6248891 -642.38133433 684.99938939 -644.25 687.375 C-647.63081599 691.61703438 -651.21280347 695.64490905 -654.8671875 699.65234375 C-656.67274171 701.63977613 -658.43736145 703.6515348 -660.1875 705.6875 C-671.02210502 718.10581758 -682.37354345 730.49430185 -694.91796875 741.19921875 C-697.43153578 743.37324202 -699.86776229 745.62390488 -702.3125 747.875 C-707.19968256 752.32153495 -712.19226009 756.58162324 -717.36376953 760.69384766 C-718.51482899 761.61270294 -719.66123701 762.53740047 -720.80419922 763.46630859 C-786.87339325 817.10911159 -869.30323039 852.55462886 -955.125 852.375 C-956.10935028 852.37445618 -957.09370056 852.37391235 -958.10787964 852.37335205 C-973.39536328 852.33461622 -988.08865114 851.67781332 -1003 848 C-1003.86157715 847.79101074 -1004.7231543 847.58202148 -1005.61083984 847.36669922 C-1020.74644041 843.55496054 -1037.24303326 838.18335391 -1050 829 C-1046.50441366 826.89254876 -1043.45708151 826.6112806 -1039.41796875 826.32421875 C-1037.44896606 826.17025635 -1037.44896606 826.17025635 -1035.44018555 826.01318359 C-1034.40007828 825.93472198 -1034.40007828 825.93472198 -1033.33895874 825.85467529 C-966.83717873 820.6872722 -907.09432922 785.41068774 -857 743 C-855.95748863 742.13096145 -854.91449472 741.26250152 -853.87109375 740.39453125 C-847.35973356 734.9566316 -841.02738132 729.35940024 -834.80859375 723.58984375 C-832.36144694 721.3332953 -829.87748962 719.1319909 -827.375 716.9375 C-822.35864533 712.43501581 -817.58616925 707.69524093 -812.8125 702.9375 C-812.05179199 702.18138428 -811.29108398 701.42526855 -810.50732422 700.64624023 C-806.36184501 696.48945435 -802.38315604 692.24610482 -798.55249023 687.79760742 C-796.46297551 685.37818661 -794.29411531 683.03554906 -792.125 680.6875 C-787.20504655 675.28519817 -782.55454998 669.71222823 -778 664 C-777.58137695 663.47567383 -777.16275391 662.95134766 -776.73144531 662.41113281 C-758.31742571 639.30146996 -741.19444729 615.35887768 -726 590 C-725.48405273 589.14148438 -724.96810547 588.28296875 -724.43652344 587.3984375 C-710.91551435 564.84939932 -697.95317482 541.9885833 -685.52050781 518.82324219 C-683.07732459 514.28679857 -680.59938193 509.76947548 -678.125 505.25 C-671.96214213 493.97428297 -665.9044741 482.64254529 -659.84346008 471.31192017 C-651.77804608 456.23754907 -643.66660814 441.18840706 -635.46801758 426.18603516 C-631.79612772 419.46591032 -628.1442106 412.73517114 -624.5 406 C-620.34724215 398.32568869 -616.18220801 390.65830209 -612 383 C-606.18883026 372.35751196 -600.4120608 361.69656736 -594.64111328 351.03222656 C-591.92877861 346.0207424 -589.21426106 341.01044099 -586.5 336 C-585.96310547 335.00871094 -585.42621094 334.01742188 -584.87304688 332.99609375 C-582.1780883 328.02028788 -579.48238371 323.04488889 -576.78515625 318.0703125 C-567.63029064 301.1829121 -558.52147569 284.27089577 -549.42578125 267.3515625 C-542.95205857 255.3132082 -536.46193692 243.28443506 -529.89453125 231.296875 C-527.89645757 227.64922098 -525.91753327 223.99191837 -523.94921875 220.328125 C-522.96617649 218.51040009 -521.9831047 216.69269114 -521 214.875 C-520.55503174 214.0392041 -520.11006348 213.2034082 -519.65161133 212.34228516 C-514.79178515 203.39589257 -514.79178515 203.39589257 -510 201 C-508.09945234 200.90626912 -506.19555093 200.87809083 -504.29269409 200.87974548 C-503.07830658 200.87837082 -501.86391907 200.87699615 -500.61273193 200.87557983 C-499.25988745 200.8791192 -497.90704322 200.88275401 -496.55419922 200.88647461 C-495.13520306 200.88675656 -493.71620676 200.88659859 -492.29721069 200.8860321 C-488.43793537 200.88574445 -484.57869094 200.89163609 -480.71942282 200.89860606 C-476.68885548 200.90484484 -472.65828748 200.90544382 -468.62771606 200.90663147 C-460.99209327 200.90974323 -453.35648474 200.91795454 -445.72086823 200.92798096 C-437.02933259 200.93914689 -428.33779628 200.94465376 -419.64625525 200.94967639 C-401.76416207 200.96013728 -383.88208218 200.97773374 -366 201 C-367.26420466 203.53839119 -368.52949895 206.07622955 -369.79541016 208.61376953 C-370.32661217 209.6807885 -370.32661217 209.6807885 -370.86854553 210.7693634 C-373.91493123 216.87242294 -377.10339928 222.88961494 -380.375 228.875 C-380.93533936 229.90471924 -381.49567871 230.93443848 -382.07299805 231.99536133 C-386.08683699 239.35969409 -390.14522781 246.69853923 -394.23046875 254.0234375 C-398.40834398 261.51963257 -402.54451978 269.03895297 -406.68798828 276.55419922 C-407.38444009 277.81738282 -408.08089191 279.08056641 -408.77734375 280.34375 C-409.12553162 280.97532013 -409.47371948 281.60689026 -409.8324585 282.25759888 C-412.26157651 286.66299483 -414.69443266 291.06631178 -417.12890625 295.46875 C-423.97164835 307.84646289 -430.77428424 320.24372225 -437.49560547 332.68798828 C-440.9537719 339.08511245 -444.45324267 345.45700678 -447.99511719 351.80810547 C-451.8928945 358.79791403 -455.76055895 365.80422623 -459.625 372.8125 C-460.30313924 374.04215607 -460.98128052 375.27181101 -461.65942383 376.50146484 C-463.05071542 379.02436062 -464.44188407 381.54732417 -465.83300781 384.0703125 C-469.1941884 390.16596749 -472.55724414 396.26058803 -475.92010498 402.35531616 C-477.63430343 405.46210102 -479.34839925 408.56894249 -481.0625 411.67578125 C-482.04166667 413.45052083 -483.02083333 415.22526042 -484 417 C-478.89529383 416.88087614 -473.79074815 416.75657902 -468.6862793 416.62768555 C-466.95324034 416.58462968 -465.22016691 416.54293686 -463.48706055 416.50268555 C-460.98215388 416.44426417 -458.47741607 416.38078526 -455.97265625 416.31640625 C-455.20977798 416.29969376 -454.44689972 416.28298126 -453.66090393 416.26576233 C-451.43818471 416.2058605 -449.22060667 416.11353046 -447 416 C-446.18064972 415.96173599 -445.36129944 415.92347198 -444.51712036 415.88404846 C-443.71184906 415.82514938 -442.90657776 415.76625031 -442.0769043 415.70556641 C-441.34811569 415.65743805 -440.61932709 415.60930969 -439.86845398 415.5597229 C-437.85744612 415.15551314 -437.85744612 415.15551314 -436.69795227 413.30828857 C-435.57603791 410.92550533 -434.7994752 408.50993136 -434 406 C-433.11686363 403.64691541 -432.22549092 401.29691365 -431.328125 398.94921875 C-430.83120543 397.61715843 -430.33555977 396.28462232 -429.84106445 394.95166016 C-415.01265676 355.11395685 -397.01699672 316.12194177 -375.44873047 279.46630859 C-374.07553484 277.12858998 -372.72550085 274.7788905 -371.37890625 272.42578125 C-357.2668035 248.0647379 -341.22958933 224.26016842 -324 202 C-323.51821289 201.37625488 -323.03642578 200.75250977 -322.54003906 200.10986328 C-319.82718537 196.60967425 -317.08543878 193.13349464 -314.32666016 189.66943359 C-312.03823754 186.78974389 -309.77043294 183.89387807 -307.5 181 C-306.59253419 179.84498429 -305.684982 178.69003646 -304.77734375 177.53515625 C-302.85225887 175.08511052 -300.92788788 172.63450592 -299.00390625 170.18359375 C-298.51148438 169.55646484 -298.0190625 168.92933594 -297.51171875 168.28320312 C-296.57533586 167.09064001 -295.63912577 165.89794118 -294.703125 164.70507812 C-293.47045467 163.13537859 -292.23529084 161.56763813 -291 160 C-290.27941406 159.07960937 -289.55882812 158.15921875 -288.81640625 157.2109375 C-287.0302002 155.03675981 -285.37265452 153.50268119 -283 152 C-282.34 152 -281.68 152 -281 152 C-281.58968517 158.68309857 -282.83961306 164.89848943 -284.5625 171.375 C-285.02533125 173.13197374 -285.4851069 174.88975606 -285.94140625 176.6484375 C-286.14451416 177.41333496 -286.34762207 178.17823242 -286.55688477 178.96630859 C-287.10644612 181.14163681 -287.10644612 181.14163681 -287 184 C-286.44054687 183.19820312 -285.88109375 182.39640625 -285.3046875 181.5703125 C-275.66738217 167.86333071 -265.41983008 154.63553789 -254.49609375 141.9296875 C-252.19004939 139.22306267 -249.96551747 136.4682426 -247.75 133.6875 C-242.1792609 126.84798047 -236.07713532 120.51289189 -230.00683594 114.12011719 C-227.97748738 111.9762166 -225.95957813 109.82213484 -223.9453125 107.6640625 C-223.28418457 106.95596436 -222.62305664 106.24786621 -221.94189453 105.51831055 C-220.6897078 104.17654697 -219.43804076 102.83429812 -218.18701172 101.49145508 C-213.00349491 95.94988066 -207.80301434 90.4025466 -202 85.5 C-199.39352391 83.2544206 -196.91065479 80.95448488 -194.5 78.5 C-190.83717092 74.78800543 -186.95893845 71.39153359 -183 68 C-182.00226562 67.13632813 -181.00453125 66.27265625 -179.9765625 65.3828125 C-176.3344652 62.23538017 -172.67201287 59.11245963 -169 56 C-167.90316895 55.06969971 -167.90316895 55.06969971 -166.78417969 54.12060547 C-164.50853391 52.19740845 -162.22438375 50.28481356 -159.9375 48.375 C-158.86640991 47.46899048 -158.86640991 47.46899048 -157.77368164 46.54467773 C-154.33230135 43.68849125 -151.36046115 41.30898834 -147 40 C-148.29932983 43.43647057 -149.79719548 46.55425111 -151.66015625 49.71875 C-152.19777588 50.6360791 -152.73539551 51.5534082 -153.28930664 52.49853516 C-153.87446045 53.48901855 -154.45961426 54.47950195 -155.0625 55.5 C-155.67665771 56.54591309 -156.29081543 57.59182617 -156.92358398 58.66943359 C-158.25109681 60.92984264 -159.57978049 63.18952111 -160.91015625 65.44824219 C-163.02949899 69.04789111 -165.14048757 72.65239621 -167.25 76.2578125 C-174.8164482 89.18698919 -182.4106547 102.09944716 -190.0390625 114.9921875 C-194.37392509 122.31955879 -198.68726574 129.65959 -203 137 C-199.12270155 133.12712376 -195.25484415 129.24490191 -191.38761902 125.36196899 C-188.24875115 122.21146081 -185.10800015 119.06283468 -181.96663189 115.91481972 C-179.59173365 113.53470966 -177.21778006 111.15367297 -174.84594727 108.77050781 C-172.09109669 106.00346235 -169.33297156 103.23971678 -166.57421875 100.4765625 C-165.73436935 99.63155182 -164.89451996 98.78654114 -164.02922058 97.91592407 C-159.18224453 93.06849273 -154.21690444 88.4458403 -149 84 C-147.88187222 83.02712128 -146.76453424 82.05333309 -145.6484375 81.078125 C-106.66475512 47.30600741 -62.89801153 19.92461145 -14 3 C-12.72926636 2.55515259 -12.72926636 2.55515259 -11.43286133 2.10131836 C-10.63388428 1.82682861 -9.83490723 1.55233887 -9.01171875 1.26953125 C-8.31006592 1.02823486 -7.60841309 0.78693848 -6.88549805 0.53833008 C-4.54209517 -0.13073678 -2.42115668 -0.23430549 0 0 Z " fill="#FFFFFF" transform="translate(1202,0)"/>
<path d="M0 0 C1.19854866 -0.0032856 1.19854866 -0.0032856 2.42131042 -0.00663757 C5.05554993 -0.00894383 7.68866383 0.01728588 10.32275391 0.04418945 C12.15971523 0.04911609 13.99668158 0.05241319 15.83364868 0.05415344 C19.68206851 0.06178927 23.53011589 0.08233285 27.37841797 0.11328125 C32.29994227 0.15279973 37.22122418 0.17088302 42.14288902 0.18059063 C46.84870983 0.19059178 51.55447234 0.21045176 56.26025391 0.23168945 C57.15307446 0.2350852 58.045895 0.23848095 58.96577072 0.2419796 C61.50719767 0.25362667 64.04847719 0.27215996 66.58984375 0.29296875 C67.70447746 0.29700211 67.70447746 0.29700211 68.84162903 0.30111694 C80.84158738 0.42364381 80.84158738 0.42364381 83.75787354 3.24188232 C84.94986689 5.51877612 85.82540054 7.66474112 86.58740234 10.11938477 C86.87975266 11.04731842 87.17210297 11.97525208 87.47331238 12.93130493 C87.78198746 13.93922089 88.09066254 14.94713684 88.40869141 15.9855957 C88.74044876 17.04628265 89.07220612 18.1069696 89.41401672 19.19979858 C90.50820727 22.70425749 91.59117915 26.21208134 92.67431641 29.7199707 C93.44495374 32.19465588 94.21636738 34.66909943 94.98852539 37.14331055 C96.94589777 43.420546 98.89485115 49.70034034 100.84173584 55.98083496 C103.25647379 63.76348759 105.68838749 71.54078679 108.11923218 79.31842041 C109.00253617 82.14527905 109.88496063 84.9724113 110.76733398 87.79956055 C127.35818473 140.92904087 144.20383249 193.97903606 161.26806641 246.95825195 C162.77882776 251.64954729 164.28924495 256.34095325 165.79931641 261.0324707 C166.17531982 262.20063324 166.55132324 263.36879578 166.9387207 264.57235718 C173.37348239 284.57211058 179.72416429 304.59763807 186.03759766 324.63598633 C189.94377328 337.03316789 193.85892426 349.42737367 197.79931641 361.8137207 C198.21370464 363.11647027 198.62809266 364.4192199 199.04248047 365.7219696 C199.66769277 367.68742323 200.29291511 369.65287366 200.91815186 371.61831951 C209.45977333 398.46990701 217.91540565 425.34737222 226.30273438 452.24755859 C226.50222372 452.88721274 226.70171307 453.52686689 226.90724754 454.1859045 C227.86973884 457.27237443 228.83124551 460.35914496 229.79122925 463.44639587 C231.44546248 468.76084284 233.11088918 474.07057646 234.82373047 479.36645508 C235.25155319 480.6951059 235.25155319 480.6951059 235.6880188 482.05059814 C236.20563216 483.65327843 236.72791251 485.25446323 237.256073 486.85369873 C238.35861503 490.27228026 238.92431641 492.83381434 238.92431641 496.4699707 C220.49623378 496.58676379 202.06824718 496.67493904 183.63987446 496.72903156 C175.08327679 496.75481509 166.52690906 496.78996826 157.97045898 496.84716797 C150.51278394 496.89699863 143.05527541 496.92926064 135.59743851 496.94041318 C131.64834524 496.94693261 127.69972835 496.96225745 123.75078773 496.99862099 C120.0333011 497.03257564 116.31648676 497.04302507 112.59885979 497.03550911 C110.58512674 497.03753916 108.57146682 497.0644372 106.55792236 497.09207153 C97.73795445 497.04162357 97.73795445 497.04162357 93.67704773 494.18847656 C92.18645123 491.87654474 91.05591457 490.02477422 90.27783203 487.40625 C90.03939072 486.63330597 89.8009494 485.86036194 89.55528259 485.06399536 C89.31612625 484.23245941 89.07696991 483.40092346 88.83056641 482.54418945 C88.56212418 481.66076874 88.29368195 480.77734802 88.0171051 479.86715698 C87.43998206 477.96202647 86.86998901 476.05472432 86.306427 474.14553833 C85.10901254 470.08940818 83.87764329 466.04385141 82.64772034 461.9974823 C82.01404299 459.91207356 81.38209034 457.82614001 80.7518158 455.73970032 C77.38420462 444.61249012 73.78682968 433.56371422 70.16165161 422.51831055 C69.36585973 420.09351785 68.57061927 417.66854574 67.77587891 415.2434082 C67.52617844 414.48195496 67.27647797 413.72050171 67.01921082 412.93597412 C65.52785661 408.37087235 64.09005834 403.79308058 62.69775391 399.1965332 C62.2200354 397.63116821 62.2200354 397.63116821 61.73266602 396.03417969 C61.17704818 394.19878722 60.6324211 392.3600068 60.10229492 390.51708984 C58.78378589 386.17607604 57.8516113 383.79702213 53.92431641 381.4699707 C51.77788321 381.00479819 51.77788321 381.00479819 49.46875 381.03759766 C48.57853149 381.01782867 47.68831299 380.99805969 46.77111816 380.97769165 C45.79815796 380.97127655 44.82519775 380.96486145 43.82275391 380.95825195 C42.78582397 380.94007416 41.74889404 380.92189636 40.68054199 380.90316772 C37.22016115 380.84733153 33.75999924 380.81393467 30.29931641 380.7824707 C27.87629534 380.75216188 25.45328104 380.72130831 23.03027344 380.68994141 C17.11877653 380.61897015 11.2072605 380.56627417 5.29551888 380.52181339 C0.17685 380.48249528 -4.94156923 380.42924023 -10.06005859 380.37133789 C-17.62920589 380.28670786 -25.19826546 380.22823221 -32.76776123 380.18588257 C-35.72040885 380.1688256 -38.67279209 380.14310815 -41.62530518 380.11026001 C-45.77813505 380.06504056 -49.93042914 380.05303133 -54.08349609 380.04418945 C-55.32691772 380.02673676 -56.57033936 380.00928406 -57.85144043 379.99130249 C-58.99681274 379.99417267 -60.14218506 379.99704285 -61.32226562 380 C-62.31775421 379.99413376 -63.3132428 379.98826752 -64.33889771 379.98222351 C-67.86100166 380.60992929 -69.50974912 382.02520487 -72.07568359 384.4699707 C-73.98269254 387.33254935 -73.98269254 387.33254935 -75.60693359 390.61450195 C-75.919496 391.21197235 -76.23205841 391.80944275 -76.55409241 392.42501831 C-77.22305072 393.70614818 -77.88702698 394.9898898 -78.54641724 396.27597046 C-80.30239843 399.69916278 -82.09622544 403.10251705 -83.88427734 406.5090332 C-84.24198715 407.19303696 -84.59969696 407.87704071 -84.96824646 408.58177185 C-88.07412326 414.5080342 -91.31948489 420.34767118 -94.63818359 426.1574707 C-95.6916979 428.0063556 -96.74508203 429.85531468 -97.79833984 431.7043457 C-98.32830566 432.6344043 -98.85827148 433.56446289 -99.40429688 434.52270508 C-102.49190724 439.96729058 -105.53451044 445.43685017 -108.57568359 450.9074707 C-109.20087891 452.03016357 -109.82607422 453.15285645 -110.47021484 454.30957031 C-113.5959091 459.93881922 -116.68301457 465.58486839 -119.70458984 471.27075195 C-120.28337891 472.35622314 -120.86216797 473.44169434 -121.45849609 474.56005859 C-122.5431959 476.60065011 -123.62056304 478.64516415 -124.68896484 480.69433594 C-131.63049164 493.74737472 -131.63049164 493.74737472 -137.07568359 496.4699707 C-138.97623125 496.56370158 -140.88013267 496.59187988 -142.7829895 496.59022522 C-143.99737701 496.59159988 -145.21176453 496.59297455 -146.46295166 496.59439087 C-147.81579614 496.59085151 -149.16864038 496.58721669 -150.52148438 496.58349609 C-151.94048053 496.58321414 -153.35947683 496.58337211 -154.7784729 496.5839386 C-158.63774822 496.58422626 -162.49699265 496.57833462 -166.35626078 496.57136464 C-170.38682811 496.56512586 -174.41739611 496.56452689 -178.44796753 496.56333923 C-186.08359033 496.56022747 -193.71919886 496.55201616 -201.35481536 496.54198974 C-210.046351 496.53082381 -218.73788732 496.52531694 -227.42942834 496.52029431 C-245.31152152 496.50983343 -263.19360141 496.49223697 -281.07568359 496.4699707 C-279.55739427 491.75717559 -277.67088588 487.42792784 -275.39990234 483.03637695 C-274.85803535 481.97780991 -274.85803535 481.97780991 -274.30522156 480.89785767 C-273.12969779 478.60670024 -271.94701256 476.3193467 -270.76318359 474.0324707 C-270.35763245 473.24587067 -269.9520813 472.45927063 -269.53424072 471.64883423 C-264.19782278 461.30490882 -258.71830139 451.07050343 -252.91040039 440.98193359 C-248.46114151 433.23347447 -244.25387764 425.36633902 -240.07568359 417.4699707 C-235.38346667 408.60584625 -230.62291635 399.79946635 -225.63818359 391.0949707 C-220.42334006 381.98533176 -215.472051 372.75297792 -210.57568359 363.4699707 C-205.19171925 353.26253002 -199.69409471 343.14580795 -193.95849609 333.13012695 C-189.50874188 325.32373433 -185.27960397 317.4102809 -181.07568359 309.4699707 C-176.3610238 300.56535499 -171.57923949 291.71702594 -166.57568359 282.9699707 C-161.51291169 274.11784597 -156.66668038 265.16493157 -151.88818359 256.1574707 C-146.52671574 246.05322609 -141.09072182 236.00077685 -135.5 226.02124023 C-132.40244106 220.47281876 -129.33400188 214.90822153 -126.26318359 209.3449707 C-125.91871185 208.72119537 -125.57424011 208.09742004 -125.21932983 207.45474243 C-120.5653428 199.02469163 -115.9565607 190.57180939 -111.38818359 182.0949707 C-107.24962121 174.41640621 -103.01962939 166.79846111 -98.70068359 159.2199707 C-93.79235334 150.60423692 -89.05181485 141.90715974 -84.38818359 133.1574707 C-79.16795997 123.36483986 -73.87963487 113.6180745 -68.45556641 103.93676758 C-65.60991035 98.84962872 -62.78147323 93.75289205 -59.95068359 88.6574707 C-59.31662598 87.51616699 -58.68256836 86.37486328 -58.02929688 85.19897461 C-53.32687997 76.73208641 -48.63298316 68.26050142 -43.95068359 59.7824707 C-43.44958069 58.87535843 -43.44958069 58.87535843 -42.93835449 57.94992065 C-38.86659296 50.57561493 -34.8313483 43.18280021 -30.83984375 35.76464844 C-26.50018778 27.70390229 -22.13894172 19.6568236 -17.57568359 11.7199707 C-16.99778076 10.69178223 -16.99778076 10.69178223 -16.40820312 9.64282227 C-12.1400852 2.33406794 -8.41514149 -0.14428193 0 0 Z M9.92431641 230.4699707 C3.3370491 241.26928874 -2.75165478 252.310256 -8.70068359 263.4699707 C-9.06564941 264.1531134 -9.43061523 264.8362561 -9.80664062 265.5401001 C-10.84963371 267.49442189 -11.88921305 269.45051064 -12.92724609 271.4074707 C-13.53391113 272.55086914 -14.14057617 273.69426758 -14.765625 274.87231445 C-16.15073344 277.13389904 -16.15073344 277.13389904 -16.07568359 278.4699707 C-2.21568359 278.4699707 11.64431641 278.4699707 25.92431641 278.4699707 C24.16102437 272.00456657 22.42011891 265.65244929 20.29541016 259.31762695 C20.06024185 258.61020859 19.82507355 257.90279022 19.58277893 257.17393494 C19.09270848 255.70237995 18.60116456 254.23131486 18.1081543 252.76074219 C17.35549855 250.51360808 16.60936984 248.26437626 15.86376953 246.01489258 C15.38303498 244.57400878 14.90192877 243.13324892 14.42041016 241.69262695 C14.19953232 241.02594498 13.97865448 240.359263 13.75108337 239.67237854 C12.67553545 236.47796284 11.53913438 233.43288376 9.92431641 230.4699707 Z " fill="#FFFFFF" transform="translate(1756.07568359375,201.530029296875)"/>
<path d="M0 0 C3.65615893 0.00874863 7.3123122 0.00570639 10.96847868 0.00419545 C17.28206549 0.00315371 23.59561053 0.00935522 29.90918684 0.02067113 C39.03721905 0.03702066 48.16523133 0.04214373 57.29327659 0.04464711 C72.10784816 0.0490095 86.92239753 0.06227879 101.73695707 0.08125234 C116.11618773 0.09964904 130.49541232 0.11378692 144.87465239 0.12226796 C146.20722637 0.12305613 146.20722637 0.12305613 147.56672104 0.12386023 C152.02408688 0.12647056 156.48145277 0.12899791 160.93881869 0.13148403 C197.83671642 0.15217111 234.73458891 0.18735662 271.63246489 0.23213124 C270.29226254 3.63066854 268.85192755 6.87792594 267.16371489 10.11884999 C266.68063871 11.04713613 266.19756254 11.97542226 265.6998477 12.93183827 C264.92399321 14.41079579 264.92399321 14.41079579 264.13246489 15.91963124 C263.59202543 16.95200917 263.05158598 17.9843871 262.49476957 19.04804921 C258.16100613 27.29342316 253.6774475 35.44430227 249.12123442 43.56806874 C246.00019364 49.15298132 242.91144295 54.75581941 239.81996489 60.35713124 C239.47784971 60.97661641 239.13573454 61.59610158 238.78325224 62.23435903 C234.00039807 70.897076 229.2674383 79.58523553 224.56996489 88.29463124 C212.47126007 110.67293446 212.47126007 110.67293446 208.63246489 113.23213124 C205.79847063 113.4273447 203.06262771 113.50424985 200.22818327 113.49041677 C199.36020658 113.49409247 198.49222989 113.49776817 197.59795088 113.50155526 C194.6778372 113.51156693 191.75791278 113.50737807 188.83778715 113.50337148 C186.74846522 113.50775693 184.65914504 113.51305843 182.56982756 113.5192101 C178.06325094 113.53072902 173.55672147 113.53617094 169.05013037 113.53709149 C161.91810269 113.53902995 154.78617249 113.55707301 147.65417814 113.57784963 C129.93076072 113.62707893 112.20731665 113.65788283 94.48384428 113.67915273 C80.72670605 113.6956922 66.9696509 113.7185704 53.21256822 113.76217347 C46.12998499 113.78390783 39.0475597 113.79201143 31.96494544 113.78978074 C27.54484595 113.79145363 23.12484849 113.80554086 18.70478582 113.82299352 C16.66349613 113.828569 14.62218507 113.82910054 12.58089399 113.82405591 C-8.72466433 113.74590926 -8.72466433 113.74590926 -27.36753511 123.23213124 C-35.51698344 132.18680615 -39.14054699 140.82847435 -38.76206636 152.91181874 C-37.43621088 164.07000846 -30.89004782 172.03809432 -23.93394136 180.35517812 C-21.76836067 182.95009464 -19.64236863 185.5763853 -17.51401949 188.20185781 C-16.41302181 189.55949373 -15.31014386 190.91560689 -14.20542574 192.27021718 C-10.25156319 197.12013261 -6.37102966 202.02231307 -2.52280855 206.95625234 C0.35914173 210.64104642 3.29545476 214.27520462 6.26600981 217.88886952 C14.37744342 227.76568236 22.04746512 237.94753339 29.63246489 248.23213124 C30.12939848 248.90051015 30.62633207 249.56888906 31.13832426 250.25752187 C56.15702657 283.95690227 67.50905197 324.62961712 61.50746489 366.48213124 C55.08443346 406.00725396 34.15094149 442.29082369 1.67933989 466.20088124 C-28.21781337 487.38073675 -61.84796843 496.44612264 -98.1617856 496.35238576 C-100.00863848 496.3536674 -100.00863848 496.3536674 -101.89280152 496.35497493 C-105.27478195 496.3563272 -108.65670328 496.35324045 -112.0386765 496.34819686 C-115.69903142 496.34384874 -119.35938476 496.34534186 -123.01974154 496.34609914 C-129.34979092 496.34662162 -135.67982995 496.34350368 -142.00987673 496.3378613 C-151.16188321 496.32970887 -160.31388471 496.32712725 -169.46589443 496.32587331 C-184.31706265 496.32368866 -199.16822536 496.31704451 -214.01939058 496.3075707 C-228.4396377 496.29838138 -242.85988331 496.29130799 -257.28013277 496.28706288 C-258.17009177 496.28680016 -259.06005076 496.28653744 -259.97697821 496.28626675 C-264.4419679 496.28496164 -268.90695759 496.28369795 -273.37194729 496.28245485 C-310.37048046 496.27210051 -347.36900735 496.2544982 -384.36753511 496.23213124 C-383.62772081 492.12324092 -382.41075921 489.07538622 -380.41050386 485.39228749 C-379.79868258 484.25823476 -379.18686129 483.12418202 -378.55649996 481.95576406 C-377.88949502 480.73530446 -377.22233638 479.51492885 -376.55503511 478.29463124 C-375.86909619 477.02898125 -375.18371814 475.76302714 -374.49888277 474.49677968 C-372.78062088 471.32366011 -371.05472444 468.15477667 -369.32560396 464.98756337 C-367.93465429 462.43898062 -366.54782171 459.88816109 -365.16050386 457.33759999 C-363.22030127 453.77430938 -361.2757521 450.21343382 -359.32847261 446.65400624 C-356.1582392 440.85567686 -353.01220972 435.04435099 -349.86753511 429.23213124 C-337.83437078 407.00682459 -337.83437078 407.00682459 -332.69712496 397.65449452 C-331.84078529 396.09433988 -330.98675997 394.53291156 -330.13560152 392.96992421 C-329.0552599 390.98967857 -327.96363215 389.01618752 -326.86753511 387.04463124 C-326.27972261 385.97857656 -325.69191011 384.91252187 -325.08628511 383.81416249 C-323.25615462 381.06480736 -322.23031046 379.84952976 -319.36753511 378.23213124 C-316.5237682 377.94169801 -313.90029534 377.82453151 -311.05732393 377.84686208 C-310.211583 377.84162638 -309.36584207 377.83639069 -308.49447262 377.83099633 C-305.65562898 377.81700856 -302.81723823 377.8243431 -299.97837496 377.83149648 C-297.94477099 377.82575525 -295.91117043 377.81867301 -293.8775754 377.8103478 C-289.49485667 377.79521816 -285.11225989 377.78946189 -280.72951555 377.79087567 C-273.79536072 377.79290743 -266.86136995 377.7733536 -259.92725801 377.75070119 C-246.45124144 377.70968551 -232.97523764 377.69111891 -219.49917269 377.67452931 C-202.36761306 377.65219242 -185.23609134 377.61856385 -168.1045934 377.56733018 C-161.21633175 377.54744011 -154.32815554 377.53783055 -147.4398663 377.53637803 C-143.14553492 377.5336201 -138.85125035 377.52277273 -134.55693865 377.50986791 C-132.57124438 377.50560188 -130.58553939 377.50471896 -128.59984255 377.50754285 C-111.30136885 377.72191991 -111.30136885 377.72191991 -95.05503511 372.35713124 C-93.6067734 371.61849843 -93.6067734 371.61849843 -92.12925386 370.86494374 C-84.39419291 366.29173939 -80.49075594 360.28741893 -77.05503511 352.10713124 C-74.59196964 341.80703926 -75.43019876 332.54209373 -80.49253511 323.09541249 C-84.4550603 317.04430633 -89.20045423 311.57332887 -93.85044527 306.04463124 C-95.72684047 303.80286137 -97.55221285 301.52354016 -99.36753511 299.23213124 C-102.84029252 294.87646941 -106.35189192 290.5531727 -109.86753511 286.23213124 C-117.95710096 276.28511465 -125.966113 266.27813289 -133.84946871 256.16670156 C-135.41190088 254.17559308 -136.9926302 252.19995374 -138.57456636 250.22431874 C-165.57396917 216.17984713 -178.0169973 175.98292764 -173.11362886 132.65009999 C-168.96100248 100.33183382 -154.68111776 71.76739152 -132.36753511 48.23213124 C-131.4742148 47.27435781 -130.58089449 46.31658437 -129.66050386 45.32978749 C-95.16155364 9.07038735 -48.08257343 -0.14470725 0 0 Z " fill="#FFFFFF" transform="translate(384.36753511428833,201.76786875724792)"/>
<path d="M0 0 C0.70126227 0.01295671 1.40252455 0.02591343 2.12503719 0.03926277 C4.30796116 0.08256378 6.48972389 0.14622129 8.67211914 0.21044922 C9.96723419 0.23540466 11.26234924 0.26036011 12.59671021 0.28607178 C16.54043328 0.3643776 20.48313087 0.46640006 24.42602539 0.57763672 C25.48313375 0.60698996 25.48313375 0.60698996 26.56159782 0.63693619 C30.27210393 0.74027998 33.9825151 0.84648406 37.69287109 0.95507812 C41.49846232 1.06583397 45.30426008 1.1659572 49.11019993 1.26388359 C52.06931268 1.34200175 55.02815552 1.42809799 57.98698235 1.51633072 C59.39061115 1.55679586 60.79432946 1.59427982 62.19812202 1.62859726 C64.15656146 1.67718449 66.11467873 1.73826307 68.07275391 1.79980469 C69.73577293 1.84643753 69.73577293 1.84643753 71.43238831 1.89401245 C80.22735285 2.75304991 80.22735285 2.75304991 83.51141357 6.06582642 C84.67030277 8.20709314 85.51490641 10.20214487 86.2434082 12.52441406 C86.51562195 13.37827698 86.78783569 14.23213989 87.06829834 15.11187744 C87.35521545 16.0390155 87.64213257 16.96615356 87.93774414 17.92138672 C88.24834778 18.90202087 88.55895142 19.88265503 88.87896729 20.89300537 C89.90026254 24.12168345 90.91101063 27.35356816 91.92211914 30.58544922 C92.98725572 33.95951467 94.05536852 37.33262802 95.1237793 40.70565796 C95.85865925 43.0258907 96.59269818 45.34638996 97.32592773 47.66714478 C101.19916262 59.91459451 105.17832401 72.12688355 109.17211914 84.33544922 C109.83134847 86.35284836 110.4905295 88.37026329 111.1496582 90.38769531 C112.65563249 94.99577605 114.16329895 99.60329957 115.67211914 104.21044922 C119.70640098 104.21044922 121.7561394 102.21921618 124.85961914 99.89794922 C126.13469932 98.96564322 127.41077724 98.03470058 128.68774414 97.10498047 C129.34838867 96.6223877 130.0090332 96.13979492 130.68969727 95.64257812 C133.79196652 93.40145602 136.94868136 91.24265771 140.10961914 89.08544922 C146.67169351 84.593736 153.20835291 80.0665315 159.73461914 75.52294922 C160.70971436 74.84409668 161.68480957 74.16524414 162.68945312 73.46582031 C164.68782154 72.0743299 166.686112 70.68272752 168.68432617 69.29101562 C173.51232687 65.92901024 178.34229901 62.56984003 183.17211914 59.21044922 C185.08879577 57.8771302 187.00546242 56.54379685 188.92211914 55.21044922 C192.75545247 52.54378255 196.58878581 49.87711589 200.42211914 47.21044922 C201.37143311 46.55004639 202.32074707 45.88964355 203.29882812 45.20922852 C205.20975835 43.87990693 207.12072821 42.55064233 209.03173828 41.22143555 C213.91150416 37.82719574 218.7905138 34.43187732 223.66821289 31.03466797 C228.46547723 27.69367402 233.26555856 24.35676049 238.06713867 21.02197266 C240.49925363 19.33066122 242.92778046 17.63431875 245.35571289 15.93701172 C246.75269527 14.96543747 248.14982003 13.99406789 249.54711914 13.02294922 C250.14645264 12.60166748 250.74578613 12.18038574 251.36328125 11.74633789 C253.11318426 10.53460194 254.88893893 9.37261639 256.67211914 8.21044922 C257.60656561 7.56619098 257.60656561 7.56619098 258.55988979 6.90891743 C264.99806462 2.8414995 270.40129253 2.5213219 277.89306641 2.64282227 C279.08431625 2.64209213 280.2755661 2.641362 281.50291443 2.64060974 C284.74238881 2.64347928 287.98075781 2.6684075 291.22001386 2.70347953 C294.6152084 2.73491402 298.01042884 2.73768712 301.40574646 2.74360657 C307.82302629 2.75909525 314.23987597 2.80005518 320.6569671 2.85035402 C327.96773751 2.90640357 335.27852937 2.933773 342.58946145 2.95883119 C357.61725293 3.01097636 372.64464284 3.09882043 387.67211914 3.21044922 C388.67211914 6.21044922 388.67211914 6.21044922 387.70678711 8.66455078 C386.94325928 10.11812988 386.94325928 10.11812988 386.16430664 11.60107422 C385.59663574 12.69073486 385.02896484 13.78039551 384.4440918 14.90307617 C383.81222054 16.08910862 383.17988393 17.27489324 382.54711914 18.46044922 C381.900015 19.68961954 381.25337339 20.91903347 380.60717773 22.14868164 C376.13540605 30.62121721 371.47374959 38.9792451 366.71069336 47.29150391 C362.20452413 55.18237915 357.92220255 63.18004903 353.67211914 71.21044922 C348.97966769 80.07446237 344.21927914 88.88089369 339.23461914 97.58544922 C333.56573712 107.49016412 328.20150641 117.54206922 322.87075806 127.63104248 C318.4194563 136.05509875 313.9355438 144.45360437 309.27026367 152.76171875 C305.89914396 158.77110607 302.62747481 164.83189289 299.35961914 170.89794922 C295.11812878 178.76497935 290.78965332 186.57315494 286.35961914 194.33544922 C280.93521922 203.84821035 275.76457602 213.48103358 270.64117432 223.15759277 C266.2899243 231.37079977 261.85409476 239.51877697 257.23461914 247.58544922 C251.62801732 257.37943787 246.33282795 267.32177938 241.06887817 277.30218506 C236.55988965 285.84565028 231.97598921 294.32776042 227.17211914 302.71044922 C221.5214387 312.57249428 216.17964095 322.58334072 210.8704834 332.6315918 C206.41927204 341.05546375 201.93544325 349.45378343 197.27026367 357.76171875 C193.89914425 363.77110555 190.62744576 369.83187766 187.35961914 375.89794922 C183.14043403 383.72441422 178.83270092 391.49038943 174.42211914 399.21044922 C168.76131004 409.13096295 163.40007634 419.19541116 158.07171631 429.29650879 C153.03507211 438.83865099 147.8748252 448.28937361 142.50439453 457.64916992 C139.47191059 462.95661199 136.53450794 468.30403467 133.67602539 473.70654297 C133.33708252 474.34598846 132.99813965 474.98543396 132.64892578 475.64425659 C130.98727775 478.78244601 129.33478359 481.92500389 127.69506836 485.07470703 C127.09839355 486.20618164 126.50171875 487.33765625 125.88696289 488.50341797 C125.36223389 489.50912842 124.83750488 490.51483887 124.296875 491.55102539 C122.60781352 494.31570559 121.17277537 496.15114365 118.67211914 498.21044922 C115.93637085 498.72943115 115.93637085 498.72943115 112.75561523 498.75634766 C111.55850922 498.77606628 110.3614032 498.79578491 109.12802124 498.81610107 C107.18145126 498.81794403 107.18145126 498.81794403 105.19555664 498.81982422 C103.82864467 498.83484938 102.46175055 498.8515854 101.09487915 498.86993408 C97.47824368 498.91370479 93.8618486 498.93358506 90.24499512 498.94866943 C86.66715944 498.96784528 83.08961324 499.01012164 79.51196289 499.05029297 C73.23767723 499.11768395 66.96369523 499.15476951 60.68909836 499.1765213 C56.11266166 499.19525984 51.53798397 499.25447732 46.9621582 499.32958984 C44.60766739 499.35769997 42.25317527 499.38570099 39.89868164 499.41357422 C38.82919281 499.43780457 37.75970398 499.46203491 36.6578064 499.48699951 C27.11941672 499.567596 27.11941672 499.567596 23.67211914 496.21044922 C22.29663086 493.24487305 22.29663086 493.24487305 21.22680664 489.60498047 C20.81228614 488.24606195 20.39654746 486.88751456 19.97973633 485.52929688 C19.76796753 484.82033264 19.55619873 484.11136841 19.3380127 483.38092041 C18.45477004 480.50200272 17.47539386 477.66075794 16.48883057 474.81588745 C15.48567337 471.91793702 14.51305172 469.01007362 13.5402832 466.10180664 C13.04102779 464.62126175 12.53472686 463.14307569 12.02172852 461.66723633 C8.5077522 451.53564196 5.76775618 443.10289133 10.50024414 432.88623047 C11.28974435 431.42206948 12.09806189 429.9679432 12.92211914 428.52294922 C13.36467041 427.71462646 13.80722168 426.90630371 14.26318359 426.07348633 C15.71271916 423.44067687 17.18877618 420.82434523 18.67211914 418.21044922 C19.16824707 417.33195312 19.664375 416.45345703 20.17553711 415.54833984 C22.27615044 411.83036867 24.3800567 408.11434965 26.49462891 404.40429688 C30.90986224 396.63538828 35.15809782 388.78353967 39.35961914 380.89794922 C44.55866433 371.1434569 49.8367385 361.4414114 55.23168945 351.79394531 C58.33201458 346.23332829 61.40791357 340.65915856 64.48461914 335.08544922 C64.82800323 334.46351685 65.17138733 333.84158447 65.525177 333.20080566 C70.78452987 323.67157636 75.98882753 314.11373492 81.15966797 304.53613281 C84.67704503 298.02742355 88.24592365 291.55008754 91.85620117 285.0925293 C95.99393632 277.6735752 100.01984412 270.1943072 104.03149414 262.70654297 C107.04287371 257.11290541 110.1775521 251.65326264 113.5793457 246.28662109 C114.90500093 244.15902756 114.90500093 244.15902756 114.67211914 241.21044922 C114.19081543 241.56647217 113.70951172 241.92249512 113.21362305 242.28930664 C102.16544254 250.45722727 91.07465363 258.56156295 79.92358398 266.58837891 C77.62576918 268.2438421 75.33023038 269.90241379 73.03540039 271.56201172 C58.23291032 282.26657556 58.23291032 282.26657556 50.8125 287.51904297 C47.69544919 289.73334633 44.6225114 291.99435783 41.57836914 294.30810547 C40.89540771 294.8229248 40.21244629 295.33774414 39.50878906 295.86816406 C38.18462833 296.86891079 36.86676507 297.87805914 35.55615234 298.89648438 C33.98450534 300.07995735 32.33298233 301.15583267 30.67211914 302.21044922 C29.68211914 301.88044922 28.69211914 301.55044922 27.67211914 301.21044922 C26.55207825 298.79458618 26.55207825 298.79458618 25.49560547 295.54492188 C25.09541702 294.33341461 24.69522858 293.12190735 24.28291321 291.87368774 C23.85627209 290.54075283 23.43002741 289.20769096 23.00415039 287.87451172 C22.56095855 286.5151907 22.11682872 285.15617517 21.67179871 283.79745483 C20.74076671 280.94657123 19.8177461 278.09326299 18.90087891 275.23779297 C17.7251205 271.57654613 16.53509145 267.92014993 15.33971119 264.26526833 C14.42225079 261.4578457 13.50971732 258.64884319 12.59894371 255.83924484 C12.16165189 254.49054337 11.72345482 253.14213505 11.28434181 251.79402542 C10.67178024 249.90909334 10.06595612 248.02197574 9.46044922 246.13476562 C9.11419998 245.06078522 8.76795074 243.98680481 8.41120911 242.88027954 C7.67211914 240.21044922 7.67211914 240.21044922 7.67211914 237.21044922 C7.01211914 237.21044922 6.35211914 237.21044922 5.67211914 237.21044922 C5.46200195 237.98646484 5.25188477 238.76248047 5.03540039 239.56201172 C3.16857502 244.55804294 0.52989217 248.97949088 -2.14038086 253.58544922 C-6.8350001 261.77857295 -11.42365239 270.01589641 -15.89038086 278.33544922 C-21.84391233 289.40575057 -28.03182188 300.33184826 -34.32788086 311.21044922 C-36.32788086 310.21044922 -36.32788086 310.21044922 -37.19308472 308.08444214 C-37.48361725 307.13973053 -37.77414978 306.19501892 -38.07348633 305.22167969 C-38.40995682 304.14137985 -38.74642731 303.06108002 -39.09309387 301.94804382 C-39.45674545 300.75330948 -39.82039703 299.55857513 -40.19506836 298.32763672 C-40.7888082 296.41173032 -41.38255171 294.49582506 -41.97643375 292.57996273 C-42.61498464 290.51497576 -43.24979551 288.44887173 -43.88357544 286.38241577 C-45.21128144 282.05419 -46.5493916 277.72923146 -47.89013672 273.4050293 C-48.11625358 272.67572614 -48.34237043 271.94642298 -48.57533932 271.19501972 C-49.03692978 269.70637903 -49.49856533 268.21775231 -49.96024513 266.72913933 C-50.66596082 264.45265616 -51.37073109 262.1758819 -52.07536316 259.89906311 C-56.52012103 245.54536717 -61.05690365 231.22151652 -65.61566162 216.90368652 C-66.88388467 212.91986911 -68.14840154 208.93488122 -69.41235352 204.94970703 C-74.25452964 189.68555329 -74.25452964 189.68555329 -79.1683197 174.4443512 C-80.2404799 171.14332612 -81.30401071 167.83956002 -82.36618042 164.53530884 C-83.04648838 162.43248309 -83.74054588 160.33457671 -84.43554688 158.23657227 C-86.8146135 150.82292985 -88.91272169 144.20378334 -86.47241211 136.51513672 C-86.0328418 135.71333984 -85.59327148 134.91154297 -85.14038086 134.08544922 C-84.31086914 132.54824219 -84.31086914 132.54824219 -83.46459961 130.97998047 C-82.75431453 129.72236417 -82.0418553 128.46597466 -81.32788086 127.21044922 C-80.41754451 125.5894566 -79.5074042 123.96835388 -78.59741211 122.34716797 C-76.41193197 118.46652635 -74.21367824 114.59333917 -72.01147461 110.72216797 C-68.12479751 103.87321829 -64.31309184 96.98393331 -60.51538086 90.08544922 C-60.18196686 89.47989197 -59.84855286 88.87433472 -59.5050354 88.25042725 C-58.14243169 85.77526589 -56.78008596 83.29996303 -55.4183197 80.82434082 C-53.0211241 76.46700561 -50.61759378 72.1132115 -48.21069336 67.76123047 C-46.85372583 65.30691208 -45.49695537 62.85248486 -44.14038086 60.39794922 C-43.80748047 59.79563477 -43.47458008 59.19332031 -43.1315918 58.57275391 C-39.09842838 51.2722176 -35.09878678 43.9547853 -31.14501953 36.61083984 C-28.55483011 31.80220654 -25.94797407 27.00285016 -23.32788086 22.21044922 C-22.81821777 21.27797363 -22.30855469 20.34549805 -21.78344727 19.38476562 C-20.31346802 16.71365428 -18.82453603 14.05418656 -17.32788086 11.39794922 C-16.89499756 10.60888184 -16.46211426 9.81981445 -16.01611328 9.00683594 C-15.60337158 8.28383301 -15.19062988 7.56083008 -14.76538086 6.81591797 C-14.23750977 5.87462036 -14.23750977 5.87462036 -13.69897461 4.91430664 C-9.91094631 0.20692603 -5.76454017 -0.14128897 0 0 Z " fill="#FFFFFF" transform="translate(1321.327880859375,198.78955078125)"/>
<path d="M0 0 C0.87198029 -0.00700928 1.74396057 -0.01401855 2.6423645 -0.02124023 C5.52361939 -0.03883994 8.40389144 -0.02719053 11.28515625 -0.01367188 C13.28768095 -0.01636622 15.29020439 -0.02024816 17.29272461 -0.02526855 C21.48922178 -0.03116628 25.68537836 -0.02259171 29.88183594 -0.00390625 C35.26241669 0.01888334 40.64219938 0.00576174 46.02275085 -0.01819611 C50.15773538 -0.03264659 54.29253054 -0.02805151 58.42752075 -0.01768494 C60.41146946 -0.01501558 62.39543534 -0.01829472 64.37936401 -0.02760315 C67.15181046 -0.03775633 69.92296253 -0.0222851 72.6953125 0 C73.92666428 -0.01214539 73.92666428 -0.01214539 75.18289185 -0.02453613 C78.62818846 0.02679932 80.87892554 0.1928336 83.74761963 2.18031311 C85.59435929 4.87795137 86.59311192 7.31878526 87.60058594 10.43139648 C87.99111145 11.61923233 88.38163696 12.80706818 88.78399658 14.03089905 C89.19621467 15.32712137 89.60804877 16.62346585 90.01953125 17.91992188 C90.45865729 19.27355428 90.8986753 20.62689761 91.33953857 21.97996521 C92.69404164 26.15335953 94.02320493 30.33456592 95.34765625 34.51757812 C95.74057861 35.7550177 96.13350098 36.99245728 96.53833008 38.26739502 C99.0518559 46.20530561 101.52366074 54.15587855 103.98680115 62.10954285 C105.9433372 68.42106141 107.91137211 74.7290126 109.87890625 81.03710938 C110.2156197 82.11694407 110.2156197 82.11694407 110.55913544 83.2185936 C115.66636018 99.59135871 120.8749783 115.93134518 126.09765625 132.26757812 C127.94465537 138.04601797 129.7911227 143.82462749 131.63671875 149.60351562 C131.86838871 150.32888582 132.10005867 151.05425602 132.33874893 151.80160713 C138.09170373 169.81876728 143.78338268 187.8552293 149.47265625 205.89257812 C151.48937458 212.28587316 153.50625457 218.67911717 155.5234375 225.07226562 C155.76965033 225.8526268 156.01586315 226.63298798 156.26953697 227.43699646 C161.38110602 243.6364479 166.51657013 259.82826827 171.66015625 276.01757812 C172.07147297 277.31223526 172.48278889 278.60689265 172.894104 279.90155029 C173.09692364 280.53994024 173.29974327 281.17833019 173.50870895 281.83606529 C174.52406206 285.03197768 175.53938577 288.22789941 176.5546875 291.42382812 C176.95240356 292.6757193 177.35011963 293.92761047 177.7598877 295.21743774 C182.52618811 310.22337821 187.27701244 325.23421805 192.02728271 340.24523926 C196.43623432 354.17744417 200.85077111 368.10783048 205.28125 382.03320312 C210.31555256 397.85747968 215.33922662 413.68509243 220.34765625 429.51757812 C220.68981548 430.5990424 220.68981548 430.5990424 221.03888702 431.70235443 C224.11584766 441.42883807 227.18419145 451.1579868 230.24124146 460.89074707 C231.13996209 463.75133807 232.04132871 466.61107391 232.94503784 469.47009277 C234.19506957 473.42532081 235.43589875 477.38337549 236.67578125 481.34179688 C237.04971512 482.52092148 237.42364899 483.70004608 237.80891418 484.91490173 C238.31390694 486.53520042 238.31390694 486.53520042 238.82910156 488.18823242 C239.12407532 489.1262822 239.41904907 490.06433197 239.72296143 491.0308075 C240.34765625 493.51757812 240.34765625 493.51757812 240.34765625 497.51757812 C225.39413926 497.54113675 210.44062373 497.55866836 195.48709202 497.5693903 C188.54094884 497.57450519 181.59481732 497.58145392 174.64868164 497.59301758 C167.92480804 497.6042057 161.20094647 497.60988981 154.47706413 497.61245537 C151.93271636 497.61427984 149.38836912 497.61784116 146.84402657 497.62330818 C138.6776649 497.64013109 130.51356733 497.60246839 122.34765625 497.51757812 C121.16448193 497.5102 119.9813076 497.50282188 118.76227951 497.49522018 C115.28439914 497.46505698 111.80893841 497.39979619 108.33178711 497.32397461 C107.28159425 497.31863488 106.23140139 497.31329515 105.1493845 497.30779362 C98.03237813 497.09780397 98.03237813 497.09780397 94.80484009 494.36282349 C93.25249175 491.3317633 92.07334081 488.43720402 91.04858398 485.18725586 C90.85089511 484.57072427 90.65320623 483.95419268 90.44952679 483.31897831 C89.79959008 481.28287872 89.16536416 479.24224912 88.53125 477.20117188 C88.07414039 475.75748388 87.61610329 474.31408926 87.15719604 472.87097168 C85.93809639 469.02771653 84.7326366 465.18030912 83.52975845 461.33195114 C82.53828571 458.1670333 81.53795731 455.00494844 80.53726864 451.84293461 C76.13875897 437.94427631 71.7775643 424.03443413 67.55859375 410.08007812 C67.29734207 409.21689468 67.03609039 408.35371124 66.766922 407.46437073 C65.63144952 403.70375899 64.50774701 399.94031123 63.40600586 396.16967773 C63.0322583 394.9116333 62.65851074 393.65358887 62.2734375 392.35742188 C61.81578003 390.78528931 61.81578003 390.78528931 61.34887695 389.18139648 C60.29947007 386.3893754 59.39745068 384.67968819 57.34765625 382.51757812 C54.89275864 381.92410269 54.89275864 381.92410269 52.07177734 382.02983093 C50.9781488 382.02288712 49.88452026 382.0159433 48.75775146 382.00878906 C47.55765442 382.02159912 46.35755737 382.03440918 45.12109375 382.04760742 C43.85751038 382.04541702 42.593927 382.04322662 41.29205322 382.04096985 C37.82498814 382.03554508 34.35845635 382.05497618 30.89148712 382.07907081 C27.26540267 382.10034762 23.63932056 382.09977129 20.01318359 382.10176086 C13.9234091 382.10821111 7.83383526 382.12946761 1.74414062 382.16088867 C-6.07448627 382.20117718 -13.89298234 382.21857575 -21.71170044 382.22819805 C-28.43041435 382.23649902 -35.14910051 382.25373682 -41.86779022 382.27323556 C-43.31058419 382.27728511 -44.75337906 382.28102458 -46.19617462 382.28445792 C-50.93943606 382.29574625 -55.68257004 382.31590936 -60.42578125 382.34057617 C-62.22592682 382.34460953 -62.22592682 382.34460953 -64.06243896 382.34872437 C-65.70288177 382.35945732 -65.70288177 382.35945732 -67.37646484 382.3704071 C-68.32846771 382.37468059 -69.28047058 382.37895407 -70.26132202 382.38335705 C-72.79991265 382.42090129 -72.79991265 382.42090129 -75.65234375 383.51757812 C-76.69719553 385.75293604 -76.69719553 385.75293604 -77.65234375 388.51757812 C-78.79325462 390.7720194 -79.95263347 393.00544911 -81.14453125 395.23242188 C-81.48640472 395.87583023 -81.8282782 396.51923859 -82.18051147 397.18214417 C-83.29342439 399.27457172 -84.41022206 401.36489498 -85.52734375 403.45507812 C-86.30314687 404.91076094 -87.07886233 406.36649048 -87.85449219 407.82226562 C-93.56507131 418.52937793 -99.35294248 429.19288171 -105.18554688 439.83398438 C-107.85630387 444.72029611 -110.50283294 449.6197245 -113.15234375 454.51757812 C-114.2342597 456.51503641 -115.31629055 458.51243247 -116.3984375 460.50976562 C-118.04330441 463.54575679 -119.68726903 466.58221991 -121.32861328 469.62011719 C-122.9546937 472.62905477 -124.58442522 475.6359895 -126.21484375 478.64257812 C-126.70339844 479.54878906 -127.19195313 480.455 -127.6953125 481.38867188 C-134.98886936 494.81452095 -134.98886936 494.81452095 -139.65234375 497.51757812 C-142.23651423 497.79968859 -144.57527113 497.91019497 -147.15667725 497.87834167 C-147.91555213 497.88090495 -148.67442702 497.88346822 -149.45629811 497.88610917 C-152.00070353 497.89105301 -154.54451638 497.87454457 -157.08886719 497.8581543 C-158.91209397 497.85730815 -160.73532178 497.85778292 -162.55854797 497.85948181 C-167.51072182 497.86034368 -172.46267833 497.8426868 -177.4148016 497.82175994 C-182.58912496 497.80302517 -187.76345313 497.80124522 -192.93780518 497.79768372 C-202.73731825 497.78835384 -212.53673109 497.76372728 -222.3362 497.73363525 C-233.49205188 497.70012058 -244.64790852 497.6836126 -255.8037982 497.66854894 C-278.75336898 497.63717858 -301.70285075 497.58439974 -324.65234375 497.51757812 C-325.14734375 496.03257812 -325.14734375 496.03257812 -325.65234375 494.51757812 C-320.33389479 492.61832839 -314.93090667 491.31882645 -309.4453125 490.01367188 C-261.28961722 478.38774569 -216.42300436 462.78300044 -178.65234375 429.51757812 C-177.93949219 428.91558594 -177.22664062 428.31359375 -176.4921875 427.69335938 C-166.11874495 418.89616887 -157.14207212 409.1741267 -149.00244141 398.30761719 C-147.68115634 396.55577956 -146.33218596 394.82885457 -144.9765625 393.10351562 C-125.51660925 367.94392064 -113.26141585 338.13863149 -103.58227539 308.09350586 C-100.11764077 297.35526932 -96.28635915 287.30831613 -90.65234375 277.51757812 C-90.31122559 276.91800293 -89.97010742 276.31842773 -89.61865234 275.70068359 C-76.0866695 252.31121534 -54.03536038 235.06950294 -27.79150391 228.03955078 C-12.3297103 224.26674609 3.56990359 222.41493048 19.34765625 220.51757812 C9.60791061 208.4508387 -3.25856992 203.86590487 -18.14453125 201.08740234 C-26.9692005 199.33363409 -32.31188246 195.23929615 -38.38671875 188.63085938 C-47.97337319 178.56487221 -59.41692821 172.69578363 -73.3984375 172.24023438 C-83.48618863 172.1063192 -93.62892912 172.28663247 -103.65234375 173.51757812 C-102.35003828 169.29047407 -100.73683406 165.53790541 -98.6328125 161.65039062 C-98.02937012 160.52979248 -97.42592773 159.40919434 -96.80419922 158.25463867 C-96.1495609 157.05053864 -95.494772 155.84652048 -94.83984375 154.64257812 C-94.16123157 153.38733616 -93.48301435 152.13188059 -92.80517578 150.8762207 C-91.42299334 148.31760193 -90.03804537 145.76050976 -88.65087891 143.20458984 C-86.83439887 139.85636942 -85.0289691 136.50230533 -83.2265625 133.14648438 C-78.05890451 123.5401312 -72.80945435 113.99128301 -67.40234375 104.51757812 C-61.74298462 94.59853292 -56.3810217 84.53664924 -51.05496216 74.43655396 C-45.95280389 64.76649707 -40.70558977 55.20165524 -35.26928711 45.71411133 C-30.8985407 38.04960906 -26.7954145 30.26010846 -22.78393555 22.40209961 C-11.2337661 -0.11080377 -11.2337661 -0.11080377 0 0 Z " fill="#FFFFFF" transform="translate(1080.65234375,199.482421875)"/>
<path d="M0 0 C6.6 0 13.2 0 20 0 C24.49973134 4.49973134 24.49973134 4.49973134 25.69165039 8.01489258 C25.96195572 8.79282669 26.23226105 9.5707608 26.51075745 10.37226868 C26.92502235 11.62078865 26.92502235 11.62078865 27.34765625 12.89453125 C27.79461098 14.19290169 27.79461098 14.19290169 28.25059509 15.51750183 C29.19893465 18.27887228 30.13127558 21.04531618 31.0625 23.8125 C32.00039317 26.56781743 32.94159087 29.32196967 33.88511658 32.07536316 C34.47011027 33.78585357 35.05134718 35.49763504 35.62818909 37.21089172 C35.89534225 37.99828232 36.16249542 38.78567291 36.43774414 39.59692383 C36.66772598 40.27991043 36.89770782 40.96289703 37.13465881 41.6665802 C38.30552283 44.82385196 39.67352172 47.90488402 41 51 C41.33 34.5 41.66 18 42 1 C49.59 1 57.18 1 65 1 C65 43.24 65 85.48 65 129 C58.4 129 51.8 129 45 129 C41.46668814 125.46668814 40.47396206 124.42796321 38.95703125 120.08984375 C38.60954834 119.11200928 38.26206543 118.1341748 37.90405273 117.12670898 C37.54384033 116.07427002 37.18362793 115.02183105 36.8125 113.9375 C36.43101807 112.85090088 36.04953613 111.76430176 35.65649414 110.64477539 C31.29464755 98.14532813 27.14675656 85.57191275 23 73 C22.67 91.48 22.34 109.96 22 129 C14.74 129 7.48 129 0 129 C0 86.43 0 43.86 0 0 Z " fill="#FFFFFF" transform="translate(1280,727)"/>
<path d="M0 0 C2.07416593 -0.00436309 4.14618129 -0.04072461 6.2199707 -0.07861328 C14.48983356 -0.14918625 22.85123969 0.12358282 29.41455078 5.78295898 C33.26625901 10.09585041 35.02985272 14.53859853 35.01712036 20.26179504 C35.01986969 21.21946777 35.02261902 22.1771405 35.02545166 23.16383362 C35.01466583 24.72181923 35.01466583 24.72181923 35.00366211 26.3112793 C35.00395416 27.4141629 35.00424622 28.51704651 35.00454712 29.65335083 C35.00315498 33.29485978 34.98759893 36.93616355 34.97192383 40.57763672 C34.96819329 43.10397734 34.96534651 45.6303194 34.96334839 48.15666199 C34.95649512 54.12412701 34.94073586 60.0915041 34.92064941 66.05893391 C34.89827313 72.85455711 34.88729264 79.65018387 34.87725854 86.44583476 C34.85636909 100.42080647 34.81969981 114.39568547 34.77661133 128.37060547 C27.51661133 128.37060547 20.25661133 128.37060547 12.77661133 128.37060547 C12.77661133 113.52060547 12.77661133 98.67060547 12.77661133 83.37060547 C5.84661133 83.37060547 -1.08338867 83.37060547 -8.22338867 83.37060547 C-8.22338867 98.22060547 -8.22338867 113.07060547 -8.22338867 128.37060547 C-15.81338867 128.37060547 -23.40338867 128.37060547 -31.22338867 128.37060547 C-31.26868265 115.01794067 -31.3053297 101.66532742 -31.32701302 88.312603 C-31.33742309 82.11153037 -31.35153138 75.91051331 -31.37426758 69.70947266 C-31.39609519 63.71832996 -31.40797816 57.72724051 -31.41314316 51.7360611 C-31.41682116 49.45727959 -31.42400312 47.17850079 -31.43484879 44.89974213 C-31.57766289 13.63263315 -31.57766289 13.63263315 -25.22338867 6.37060547 C-18.18211645 -0.4803621 -9.21747615 -0.00216703 0 0 Z M-7.22338867 23.37060547 C-7.22338867 35.25060547 -7.22338867 47.13060547 -7.22338867 59.37060547 C-0.95338867 59.37060547 5.31661133 59.37060547 11.77661133 59.37060547 C11.77661133 47.49060547 11.77661133 35.61060547 11.77661133 23.37060547 C5.50661133 23.37060547 -0.76338867 23.37060547 -7.22338867 23.37060547 Z " fill="#FFFFFF" transform="translate(796.223388671875,726.62939453125)"/>
<path d="M0 0 C2.15949679 0.01607929 4.31712269 0.00009752 6.4765625 -0.01904297 C22.12336754 -0.04659632 22.12336754 -0.04659632 28.44140625 5.32861328 C28.98925781 6.00923828 29.53710938 6.68986328 30.1015625 7.39111328 C30.66746094 8.07173828 31.23335937 8.75236328 31.81640625 9.45361328 C34.04526125 12.65799613 34.28844793 15.32967607 34.28431702 19.11772156 C34.28637901 20.57534912 34.28637901 20.57534912 34.28848267 22.06242371 C34.28308975 23.65924736 34.28308975 23.65924736 34.27758789 25.28833008 C34.27773392 26.41042877 34.27787994 27.53252747 34.2780304 28.68862915 C34.27733248 32.40588296 34.26954567 36.12308695 34.26171875 39.84033203 C34.25985414 42.41437248 34.25843044 44.98841329 34.25743103 47.56245422 C34.25400007 53.65036856 34.24611468 59.73826228 34.23608154 65.82616884 C34.22490671 72.75718022 34.2194065 79.68819245 34.21438611 86.6192106 C34.20393171 100.87652272 34.1855917 115.13381369 34.1640625 129.39111328 C26.9040625 129.39111328 19.6440625 129.39111328 12.1640625 129.39111328 C12.1640625 114.21111328 12.1640625 99.03111328 12.1640625 83.39111328 C5.5640625 83.39111328 -1.0359375 83.39111328 -7.8359375 83.39111328 C-7.8359375 98.24111328 -7.8359375 113.09111328 -7.8359375 128.39111328 C-15.4259375 128.39111328 -23.0159375 128.39111328 -30.8359375 128.39111328 C-30.88117103 114.46510102 -30.91784383 100.53913777 -30.93956184 86.61306858 C-30.94998681 80.14623339 -30.96412264 73.67945118 -30.98681641 67.21264648 C-31.00859049 60.96864744 -31.02051581 54.72469929 -31.02569199 48.48066521 C-31.02937953 46.10171648 -31.03658035 43.72277045 -31.04739761 41.34384346 C-31.06197303 38.00480311 -31.06391289 34.66597148 -31.06298828 31.3269043 C-31.07377411 29.86062088 -31.07377411 29.86062088 -31.08477783 28.36471558 C-31.06258278 20.92876474 -30.951524 12.79294584 -25.7109375 7.01611328 C-25.17210937 6.38962891 -24.63328125 5.76314453 -24.078125 5.11767578 C-16.82656889 -0.46627509 -8.75519217 -0.07760284 0 0 Z M-6.8359375 23.39111328 C-6.8359375 35.60111328 -6.8359375 47.81111328 -6.8359375 60.39111328 C-0.5659375 60.39111328 5.7040625 60.39111328 12.1640625 60.39111328 C12.1640625 48.18111328 12.1640625 35.97111328 12.1640625 23.39111328 C5.8940625 23.39111328 -0.3759375 23.39111328 -6.8359375 23.39111328 Z " fill="#FFFFFF" transform="translate(1211.8359375,726.60888671875)"/>
<path d="M0 0 C52.52941176 0 52.52941176 0 58.70703125 5.52734375 C67.42214918 16.64450832 65.15370632 32.20308531 65.1328125 45.66015625 C65.13348874 47.22326167 65.1344614 48.78636698 65.13571167 50.34947205 C65.13717319 53.60091163 65.13508413 56.85232345 65.13037109 60.10375977 C65.12466998 64.23411547 65.12796517 68.36440622 65.13394356 72.49475956 C65.13758718 75.71472142 65.13639336 78.93466831 65.13381577 82.15463066 C65.13315722 83.67619268 65.13393656 85.19775615 65.13629532 86.71931648 C65.17103899 115.41086871 65.17103899 115.41086871 59 123 C48.68235869 132.54381821 29.04579375 129.33331499 16 129 C10.72 128.67 5.44 128.34 0 128 C0 85.76 0 43.52 0 0 Z M22 23 C22 50.39 22 77.78 22 106 C28.6 106 35.2 106 42 106 C42 78.61 42 51.22 42 23 C35.4 23 28.8 23 22 23 Z " fill="#FFFFFF" transform="translate(1379,727)"/>
<path d="M0 0 C52.88372093 0 52.88372093 0 60.75 7.6875 C66.29883863 14.8879627 65.37259102 25.16535217 65.37060547 33.80151367 C65.37498526 35.93033554 65.41142531 38.05708899 65.44921875 40.18554688 C65.52715768 49.69756394 64.31622074 57.02566889 59 65 C59.61875 65.721875 60.2375 66.44375 60.875 67.1875 C64.15298741 71.52601275 65.25289214 75.01909599 65.22705078 80.43286133 C65.22689972 81.49358353 65.22674866 82.55430573 65.22659302 83.64717102 C65.21627045 84.7806749 65.20594788 85.91417877 65.1953125 87.08203125 C65.1924826 88.25134689 65.18965271 89.42066254 65.18673706 90.62541199 C65.17555562 94.35454608 65.15045434 98.08343868 65.125 101.8125 C65.11496759 104.34309549 65.10584219 106.87369474 65.09765625 109.40429688 C65.07562288 115.60295741 65.04110662 121.80143778 65 128 C57.74 128 50.48 128 43 128 C43 111.17 43 94.34 43 77 C36.07 77 29.14 77 22 77 C22 93.83 22 110.66 22 128 C14.74 128 7.48 128 0 128 C0 85.76 0 43.52 0 0 Z M22 22 C22 32.56 22 43.12 22 54 C28.6 54 35.2 54 42 54 C42 43.44 42 32.88 42 22 C35.4 22 28.8 22 22 22 Z " fill="#FFFFFF" transform="translate(1837,727)"/>
<path d="M0 0 C49 0 49 0 57 4 C62.89037614 10.14647945 64.31026328 14.2413301 64.30078125 22.640625 C64.30506638 23.48163757 64.3093515 24.32265015 64.31376648 25.18914795 C64.31950309 26.96772361 64.32001496 28.74632273 64.31567383 30.52490234 C64.31252719 33.22665237 64.33593424 35.92729258 64.36132812 38.62890625 C64.36360273 40.3619778 64.36430386 42.09505226 64.36328125 43.828125 C64.372491 44.62736389 64.38170074 45.42660278 64.39118958 46.25006104 C64.34603857 51.81199312 63.1957507 55.88498923 61 61 C60.608125 61.99 60.21625 62.98 59.8125 64 C59.544375 64.66 59.27625 65.32 59 66 C59.9590625 67.1446875 59.9590625 67.1446875 60.9375 68.3125 C63.82380999 72.07344938 64.12425737 74.69358684 64.11352539 79.29760742 C64.11341209 80.91894844 64.11341209 80.91894844 64.11329651 82.57304382 C64.10813522 83.73874405 64.10297394 84.90444427 64.09765625 86.10546875 C64.0962413 87.29981033 64.09482635 88.49415192 64.09336853 89.72468567 C64.0877635 93.54564908 64.07521011 97.36655425 64.0625 101.1875 C64.05748565 103.77538978 64.05292263 106.36328048 64.04882812 108.95117188 C64.03779242 115.30080375 64.02052437 121.65039199 64 128 C56.74 128 49.48 128 42 128 C42 111.17 42 94.34 42 77 C35.4 77 28.8 77 22 77 C22 93.83 22 110.66 22 128 C14.74 128 7.48 128 0 128 C0 85.76 0 43.52 0 0 Z M22 22 C22 32.89 22 43.78 22 55 C28.27 55 34.54 55 41 55 C41 44.11 41 33.22 41 22 C34.73 22 28.46 22 22 22 Z " fill="#FFFFFF" transform="translate(668,727)"/>
<path d="M0 0 C0.70359146 -0.00287018 1.40718292 -0.00574036 2.13209534 -0.00869751 C3.61028861 -0.01072576 5.08850949 -0.00528322 6.56665039 0.00732422 C8.80742525 0.02337318 11.0463903 0.0074474 13.28710938 -0.01171875 C29.16121835 -0.03759396 29.16121835 -0.03759396 35.40234375 5.046875 C36.07136719 5.90152344 36.07136719 5.90152344 36.75390625 6.7734375 C37.21539063 7.33804688 37.676875 7.90265625 38.15234375 8.484375 C41.58057626 13.83416458 41.67101351 18.57016529 41.65356445 24.7434082 C41.65867538 25.67738434 41.66378632 26.61136047 41.66905212 27.57363892 C41.68293712 30.65723097 41.68199188 33.74059917 41.6796875 36.82421875 C41.68357557 38.97267235 41.68791047 41.12112519 41.69267273 43.26957703 C41.700133 47.77276094 41.69984543 52.27586645 41.69458008 56.77905273 C41.68879162 62.53907988 41.70570249 68.29878483 41.72892475 74.05875874 C41.74368589 78.4966773 41.74453044 82.93451874 41.74141502 87.3724575 C41.74192723 89.4954511 41.74714603 91.61844912 41.75722694 93.74141884 C41.76961734 96.71625051 41.76278341 99.69046084 41.7512207 102.6652832 C41.75886444 103.53568741 41.76650818 104.40609161 41.77438354 105.3028717 C41.71638022 112.08322258 40.19708059 117.19845067 36.81640625 123.1484375 C29.64621131 129.76707898 20.66189026 129.97805084 11.37890625 129.7734375 C10.26773437 129.77214844 9.1565625 129.77085937 8.01171875 129.76953125 C-11.55115146 129.56239498 -11.55115146 129.56239498 -18.62109375 122.3984375 C-23.50849208 115.88687326 -23.77147256 109.49713226 -23.78222656 101.62011719 C-23.78719147 100.74626877 -23.79215637 99.87242035 -23.79727173 98.97209167 C-23.81184703 96.08815719 -23.81868791 93.20427773 -23.82421875 90.3203125 C-23.82997436 88.30877685 -23.83573204 86.29724121 -23.8414917 84.28570557 C-23.85198876 80.06921128 -23.85783978 75.85273598 -23.86132812 71.63623047 C-23.8668077 66.2484891 -23.89082985 60.8610011 -23.91930008 55.47333908 C-23.9379773 51.31761963 -23.94313478 47.16196057 -23.944664 43.0062027 C-23.94767997 41.02079128 -23.95567262 39.03538066 -23.96884918 37.05001068 C-23.98601489 34.26459294 -23.98400378 31.47978595 -23.97753906 28.69433594 C-23.98675385 27.88363144 -23.99596863 27.07292694 -24.00546265 26.23765564 C-23.95531814 19.29708506 -22.61319735 11.87828483 -17.87109375 6.5234375 C-17.19820312 5.72292969 -17.19820312 5.72292969 -16.51171875 4.90625 C-11.42092834 0.84623947 -6.37480202 0.01665785 0 0 Z M-0.62109375 22.3984375 C-0.62109375 49.7884375 -0.62109375 77.1784375 -0.62109375 105.3984375 C5.97890625 105.3984375 12.57890625 105.3984375 19.37890625 105.3984375 C19.37890625 78.0084375 19.37890625 50.6184375 19.37890625 22.3984375 C12.77890625 22.3984375 6.17890625 22.3984375 -0.62109375 22.3984375 Z " fill="#FFFFFF" transform="translate(1662.62109375,726.6015625)"/>
<path d="M0 0 C2.10469624 0.0031551 4.20797751 -0.02031935 6.3125 -0.0456543 C14.81409155 -0.08555515 21.14139028 0.49245735 28.4921875 5.00317383 C34.38524356 11.05992589 35.1890201 16.75992439 35.09375 24.90551758 C35.06023437 26.03086914 35.02671875 27.1562207 34.9921875 28.31567383 C34.97414063 29.47196289 34.95609375 30.62825195 34.9375 31.81958008 C34.89068359 34.65197267 34.81895151 37.48393464 34.7421875 40.31567383 C27.4821875 40.31567383 20.2221875 40.31567383 12.7421875 40.31567383 C12.7421875 34.70567383 12.7421875 29.09567383 12.7421875 23.31567383 C6.1421875 23.31567383 -0.4578125 23.31567383 -7.2578125 23.31567383 C-7.2578125 33.21567383 -7.2578125 43.11567383 -7.2578125 53.31567383 C0.51987824 53.15865906 0.51987824 53.15865906 8.29638672 52.95532227 C15.91362385 52.87846812 23.32495864 53.6235249 29.39013672 58.69311523 C34.89051125 64.78544051 35.05073289 71.532463 35.04296875 79.28051758 C35.04725388 80.23205215 35.051539 81.18358673 35.05595398 82.16395569 C35.06167988 84.17016812 35.06221041 86.1764013 35.05786133 88.18261719 C35.05470143 91.23970185 35.07818234 94.29581799 35.10351562 97.3527832 C35.10578891 99.30786011 35.10649198 101.26293961 35.10546875 103.21801758 C35.1146785 104.12551254 35.12388824 105.03300751 35.13337708 105.96800232 C35.08344063 112.87081823 33.98631529 117.64698132 29.4296875 123.06567383 C21.11334884 130.02818992 12.90497937 129.52490458 2.5546875 129.56567383 C0.62012695 129.59661133 0.62012695 129.59661133 -1.35351562 129.62817383 C-9.45232004 129.66128085 -17.03603596 129.68463741 -23.59765625 124.44848633 C-30.7855672 115.41526817 -31.86325595 106.67664219 -31.2578125 95.31567383 C-30.9278125 93.33567383 -30.5978125 91.35567383 -30.2578125 89.31567383 C-22.9978125 89.31567383 -15.7378125 89.31567383 -8.2578125 89.31567383 C-8.2578125 94.59567383 -8.2578125 99.87567383 -8.2578125 105.31567383 C-1.6578125 105.31567383 4.9421875 105.31567383 11.7421875 105.31567383 C11.7421875 95.74567383 11.7421875 86.17567383 11.7421875 76.31567383 C7.3490625 76.37754883 7.3490625 76.37754883 2.8671875 76.44067383 C-17.62771508 76.50492117 -17.62771508 76.50492117 -25.2578125 69.31567383 C-30.54024314 62.27243298 -31.14233036 54.87023534 -31.2578125 46.31567383 C-31.27150879 45.5701123 -31.28520508 44.82455078 -31.29931641 44.05639648 C-31.79906348 14.35456142 -31.79906348 14.35456142 -24.6484375 6.56176758 C-17.3415054 -0.1470307 -9.46841102 -0.02969878 0 0 Z " fill="#FFFFFF" transform="translate(1965.2578125,726.684326171875)"/>
<path d="M0 0 C7.26 0 14.52 0 22 0 C22 34.98 22 69.96 22 106 C28.6 106 35.2 106 42 106 C42 71.35 42 36.7 42 1 C49.59 1 57.18 1 65 1 C65.06781866 15.33443125 65.12284112 29.66875567 65.15543652 44.00331116 C65.17108189 50.65966578 65.19229982 57.31587408 65.22631836 63.97216797 C65.25895153 70.39771662 65.27686152 76.82315416 65.28463173 83.2487793 C65.29016808 85.69834135 65.3009792 88.14789744 65.31719017 90.59741211 C65.3390165 94.03252225 65.34196467 97.46717525 65.34057617 100.90234375 C65.351362 101.91151352 65.36214783 102.92068329 65.3732605 103.96043396 C65.3433767 110.80798301 64.6347357 116.71230806 60.203125 122.2421875 C59.55859375 122.78101563 58.9140625 123.31984375 58.25 123.875 C57.61578125 124.42929687 56.9815625 124.98359375 56.328125 125.5546875 C49.05234859 130.07152856 40.91520137 129.33330874 32.625 129.3125 C31.34882812 129.32861328 30.07265625 129.34472656 28.7578125 129.36132812 C20.34428914 129.36567395 13.46703024 128.68021815 6.1875 124.3125 C0.06307581 117.83810871 -0.57366809 111.25056308 -0.45410156 102.62695312 C-0.45468567 101.51387787 -0.45526978 100.40080261 -0.45587158 99.2539978 C-0.45309774 95.59609159 -0.4220373 91.93901286 -0.390625 88.28125 C-0.38316016 85.73678024 -0.37746838 83.19230472 -0.37347412 80.64782715 C-0.35979218 74.64846445 -0.32830719 68.64945379 -0.28807616 62.65023184 C-0.24324711 55.81587706 -0.22134357 48.98150766 -0.20129442 42.14704227 C-0.15957065 28.09783576 -0.08626346 14.04900001 0 0 Z " fill="#FFFFFF" transform="translate(1738,727)"/>
<path d="M0 0 C7.26 0 14.52 0 22 0 C21.38905179 13.0966892 19.23155467 25.83095068 17.0703125 38.74609375 C16.67505801 41.13065097 16.28011503 43.51525985 15.88546753 45.8999176 C15.06097378 50.87208404 14.23160258 55.84340666 13.39892578 60.81420898 C12.33373897 67.17643892 11.28261743 73.54090254 10.23530769 79.90609646 C9.42485682 84.82024003 8.6061202 89.73297601 7.78496933 94.64534187 C7.39389772 96.9919777 7.00559531 99.33907682 6.62015152 101.6866436 C6.08099639 104.96373402 5.53048119 108.23872214 4.97705078 111.51342773 C4.82109436 112.47614594 4.66513794 113.43886414 4.50445557 114.43075562 C4.35032196 115.32887466 4.19618835 116.22699371 4.03738403 117.15232849 C3.84437304 118.31001818 3.84437304 118.31001818 3.64746284 119.49109554 C2.79916739 122.77822199 1.33728527 125.87966771 0 129 C-7.26 129 -14.52 129 -22 129 C-24.73995919 112.6064982 -27.47820902 96.21271223 -30.21417999 79.81854439 C-31.48451705 72.20684451 -32.75546306 64.59524723 -34.02783203 56.98388672 C-35.1365356 50.35156952 -36.24410748 43.71906451 -37.35030794 37.08632934 C-37.93633242 33.57279488 -38.52293187 30.05935857 -39.11088562 26.54614639 C-39.76643877 22.62887613 -40.41946575 18.71118711 -41.07226562 14.79345703 C-41.36681389 13.03695328 -41.36681389 13.03695328 -41.66731262 11.2449646 C-41.84400986 10.18203186 -42.02070709 9.11909912 -42.20275879 8.0239563 C-42.35762001 7.09663256 -42.51248123 6.16930882 -42.67203522 5.21388435 C-43 3 -43 3 -43 1 C-35.41 1 -27.82 1 -20 1 C-17.52479696 17.05454774 -15.37793163 33.13813272 -13.3125 49.25 C-12.9891217 51.76044107 -12.66555517 54.27085791 -12.34179688 56.78125 C-11.55903365 62.85388971 -10.77857169 68.92682155 -10 75 C-9.83420189 73.65696053 -9.83420189 73.65696053 -9.66505432 72.28678894 C-8.62359467 63.85498743 -7.57918557 55.42355766 -6.53144932 46.99253368 C-5.99288398 42.65790174 -5.45546615 38.3231339 -4.9206543 33.98803711 C-4.4046331 29.80559958 -3.88561924 25.62354341 -3.3645153 21.44173622 C-3.16608662 19.84505786 -2.96874247 18.24824434 -2.77249336 16.65129662 C-2.49775187 14.41714886 -2.21918219 12.18350978 -1.93969727 9.94995117 C-1.78203384 8.67754074 -1.62437042 7.40513031 -1.46192932 6.09416199 C-1 3 -1 3 0 0 Z " fill="#FFFFFF" transform="translate(907,727)"/>
<path d="M0 0 C14.19 0 28.38 0 43 0 C43 7.26 43 14.52 43 22 C36.4 22 29.8 22 23 22 C23 32.23 23 42.46 23 53 C29.27 53 35.54 53 42 53 C42 59.93 42 66.86 42 74 C35.73 74 29.46 74 23 74 C23 84.56 23 95.12 23 106 C29.6 106 36.2 106 43 106 C43 113.59 43 121.18 43 129 C28.81 129 14.62 129 0 129 C0 86.43 0 43.86 0 0 Z " fill="#FFFFFF" transform="translate(963,727)"/>
<path d="M0 0 C21.12 0 42.24 0 64 0 C64 7.26 64 14.52 64 22 C57.4 22 50.8 22 44 22 C44 57.31 44 92.62 44 129 C36.41 129 28.82 129 21 129 C21 93.69 21 58.38 21 22 C14.07 22 7.14 22 0 22 C0 14.74 0 7.48 0 0 Z " fill="#FFFFFF" transform="translate(1541,727)"/>
<path d="M0 0 C21.45 0 42.9 0 65 0 C65 6.93 65 13.86 65 21 C58.07 21 51.14 21 44 21 C44 56.31 44 91.62 44 128 C36.74 128 29.48 128 22 128 C22 92.69 22 57.38 22 21 C14.74 21 7.48 21 0 21 C0 14.07 0 7.14 0 0 Z " fill="#FFFFFF" transform="translate(568,728)"/>
<path d="M0 0 C7.26 0 14.52 0 22 0 C22 34.98 22 69.96 22 106 C28.6 106 35.2 106 42 106 C42 113.59 42 121.18 42 129 C28.14 129 14.28 129 0 129 C0 86.43 0 43.86 0 0 Z " fill="#FFFFFF" transform="translate(1041,727)"/>
</svg>
